<?xml version="1.0" encoding="UTF-8"?>
<svg width="100pt" height="100pt" version="1.1" viewBox="0 0 100 100" xmlns="http://www.w3.org/2000/svg">
 <path d="m36 25c-0.35938 0-0.71875 0.10156-1.0391 0.28906-0.94141 0.57031-1.2383 1.8086-0.67188 2.75l28 46c0.57031 0.94141 1.8008 1.2383 2.75 0.67188 0.94141-0.57031 1.2383-1.8086 0.67188-2.75l-28-46c-0.37109-0.60156-1.0117-0.96094-1.7109-0.96094z"/>
 <path d="m67.738 48.43c-0.76172 0.76172-0.92969 1.9414-0.39844 2.6992 0.35938 0.51172 0.87891 0.80859 1.4805 0.87109 0.60156 0.050781 1.1719-0.16016 1.5898-0.57812l6.8789-6.8789c1.75-1.75 2.7109-4.0703 2.7109-6.5312 0-2.4609-0.96094-4.7891-2.7109-6.5312l-6.8789-6.8789c-0.37891-0.37891-0.87891-0.58984-1.4102-0.58984-0.070312 0-0.14062 0-0.19922 0.011719-0.62109 0.058593-1.1406 0.37891-1.4883 0.92187-0.51172 0.76953-0.35938 1.8516 0.35156 2.5586l6.8203 6.8086c0.98828 0.98828 1.5312 2.3008 1.5312 3.6992 0 1.3984-0.53906 2.7109-1.5312 3.6992l-6.7305 6.7305z"/>
 <path d="m29.59 75.41c0.42969 0.42969 1.0117 0.64062 1.6211 0.57812 0.62109-0.058593 1.1406-0.37891 1.4883-0.92188 0.51172-0.76953 0.35938-1.8516-0.35156-2.5586l-6.8203-6.8086c-0.98828-0.98828-1.5312-2.3008-1.5312-3.6992s0.53906-2.7109 1.5312-3.6992l6.7305-6.7305c0.76172-0.76172 0.92969-1.9414 0.39844-2.6992-0.35938-0.51953-0.87891-0.80859-1.4805-0.87109-0.57812-0.050781-1.1719 0.16016-1.5898 0.57812l-6.8789 6.8789c-1.75 1.75-2.7109 4.0586-2.7109 6.5312 0 2.4688 0.96094 4.7891 2.7109 6.5312l6.8789 6.8789z"/>
</svg>
