<?xml version="1.0" encoding="UTF-8"?>
<svg width="100pt" height="100pt" version="1.1" viewBox="0 0 100 100" xmlns="http://www.w3.org/2000/svg">
 <path d="m88.992 96.484h-77.984c-4.1367-0.003906-7.4883-3.3555-7.4922-7.4922v-77.984c0.003906-4.1367 3.3555-7.4883 7.4922-7.4922h77.984c4.1367 0.003906 7.4883 3.3555 7.4922 7.4922v77.984c-0.003906 4.1367-3.3555 7.4883-7.4922 7.4922zm-77.984-89.844c-2.4102 0.003906-4.3633 1.957-4.3672 4.3672v77.984c0.003906 2.4102 1.957 4.3633 4.3672 4.3672h77.984c2.4102-0.003906 4.3633-1.957 4.3672-4.3672v-77.984c-0.003906-2.4102-1.957-4.3633-4.3672-4.3672z"/>
 <path d="m94.922 25.109h-89.844c-0.86328 0-1.5625-0.70312-1.5625-1.5625 0-0.86328 0.69922-1.5625 1.5625-1.5625h89.844c0.86328 0 1.5625 0.69922 1.5625 1.5625 0 0.85938-0.69922 1.5625-1.5625 1.5625z"/>
 <path d="m18.93 20.52c-2.5117 0-4.7773-1.5117-5.7383-3.832-0.96094-2.3203-0.42969-4.9922 1.3438-6.7656 1.7773-1.7773 4.4492-2.3086 6.7695-1.3477 2.3203 0.96094 3.832 3.2266 3.832 5.7344v0.003906c-0.003907 3.4258-2.7812 6.2031-6.207 6.207zm0-9.2891v-0.003907c-1.2461 0-2.3711 0.75391-2.8516 1.9062-0.47656 1.1523-0.21484 2.4766 0.66797 3.3594 0.88281 0.88281 2.2109 1.1484 3.3633 0.66797 1.1523-0.47656 1.9023-1.6016 1.9023-2.8516v0.003906c-0.003907-1.7031-1.3789-3.082-3.082-3.082z"/>
 <path d="m32.797 20.52c-2.5117 0-4.7773-1.5117-5.7383-3.832-0.96094-2.3203-0.42969-4.9922 1.3438-6.7656 1.7773-1.7773 4.4492-2.3086 6.7695-1.3477 2.3203 0.96094 3.832 3.2266 3.832 5.7383-0.003906 3.4258-2.7812 6.2031-6.207 6.207zm0-9.2891v-0.003907c-1.2461 0-2.3711 0.75391-2.8516 1.9062-0.47656 1.1523-0.21484 2.4766 0.66797 3.3594 0.88281 0.88281 2.2109 1.1484 3.3633 0.66797 1.1523-0.47656 1.9023-1.6016 1.9023-2.8516v0.003906c-0.003906-1.7031-1.3789-3.082-3.082-3.082z"/>
 <path d="m46.664 20.52c-2.5117 0-4.7773-1.5117-5.7383-3.832-0.96094-2.3203-0.42969-4.9922 1.3438-6.7656 1.7773-1.7773 4.4492-2.3086 6.7695-1.3477 2.3203 0.96094 3.832 3.2266 3.832 5.7383-0.003906 3.4258-2.7812 6.2031-6.207 6.207zm0-9.2891v-0.003907c-1.2461 0-2.3711 0.75391-2.8516 1.9062-0.47656 1.1523-0.21484 2.4766 0.66797 3.3594 0.88281 0.88281 2.2109 1.1484 3.3633 0.66797 1.1523-0.47656 1.9023-1.6016 1.9023-2.8516v0.003906c-0.003906-1.7031-1.3789-3.082-3.082-3.082z"/>
 <path d="m85.719 15.875h-29.492c-0.86328 0-1.5625-0.70312-1.5625-1.5625 0-0.86328 0.69922-1.5625 1.5625-1.5625h29.492c0.85938 0 1.5625 0.69922 1.5625 1.5625 0 0.85938-0.70312 1.5625-1.5625 1.5625z"/>
 <path d="m84.43 74.25h-68.863c-0.85938 0-1.5625-0.70312-1.5625-1.5625 0-0.86328 0.70312-1.5625 1.5625-1.5625h68.863c0.86328 0 1.5625 0.69922 1.5625 1.5625 0 0.85938-0.69922 1.5625-1.5625 1.5625z"/>
 <path d="m84.43 87.57h-68.863c-0.85938 0-1.5625-0.70312-1.5625-1.5625 0-0.86328 0.70312-1.5625 1.5625-1.5625h68.863c0.86328 0 1.5625 0.69922 1.5625 1.5625 0 0.85938-0.69922 1.5625-1.5625 1.5625z"/>
 <path d="m41.422 67.102c-0.54297 0-1.0469-0.28516-1.332-0.75-0.28125-0.46484-0.30078-1.0469-0.050782-1.5312l17.148-33.219c0.40625-0.73828 1.332-1.0195 2.082-0.62891 0.75391 0.38672 1.0586 1.3008 0.69141 2.0664l-17.148 33.219c-0.26953 0.51563-0.80469 0.84375-1.3906 0.84375z"/>
 <path d="m32.844 59.797c-0.32031 0-0.63281-0.097656-0.89453-0.28125l-14.844-10.375v0.003906c-0.41797-0.29297-0.66797-0.76953-0.66797-1.2812 0-0.50781 0.25-0.98828 0.66797-1.2773l14.844-10.375c0.70703-0.49219 1.6836-0.32031 2.1758 0.38672 0.49219 0.70703 0.32031 1.6836-0.38672 2.1758l-13.008 9.0898 13.008 9.0938v-0.003906c0.55859 0.39453 0.80078 1.1016 0.59766 1.7539-0.20703 0.64844-0.8125 1.0938-1.4922 1.0898z"/>
 <path d="m67.156 59.797c-0.67969 0.003906-1.2852-0.44141-1.4922-1.0898-0.20312-0.65234 0.039063-1.3594 0.59766-1.7539l13.008-9.0938-13.008-9.0898v0.003907c-0.70703-0.49219-0.87891-1.4688-0.38672-2.1758 0.49219-0.70703 1.4688-0.87891 2.1758-0.38672l14.844 10.375c0.41797 0.28906 0.66797 0.76953 0.66797 1.2773 0 0.51172-0.25 0.98828-0.66797 1.2812l-14.844 10.375v-0.003906c-0.26172 0.18359-0.57422 0.28125-0.89453 0.28125z"/>
</svg>
