<svg>
    <defs>
        <symbol id="email" viewBox="0 0 1024 1024">

            <svg 
                stroke="red" 
                fill="red" 
                stroke-width="0" 
                height="1em" 
                width="1em" >
                <path d="M928 160H96c-17.7 0-32 14.3-32 32v640c0 17.7 14.3 32 32 32h832c17.7 0 32-14.3 32-32V192c0-17.7-14.3-32-32-32zm-80.8 108.9L531.7 514.4c-7.8 6.1-18.7 6.1-26.5 0L189.6 268.9A7.2 7.2 0 0 1 194 256h648.8a7.2 7.2 0 0 1 4.4 12.9z">
                </path>
            </svg>
        </symbol>


        <symbol id="github" viewBox="0 0 496 512">

            <svg 
                stroke="currentColor" 
                fill="red" 
                stroke-width="0" 
                height="1em" 
                width="1em" > 
                <path d="M165.9 397.4c0 2-2.3 3.6-5.2 3.6-3.3.3-5.6-1.3-5.6-3.6 0-2 2.3-3.6 5.2-3.6 3-.3 5.6 1.3 5.6 3.6zm-31.1-4.5c-.7 2 1.3 4.3 4.3 4.9 2.6 1 5.6 0 6.2-2s-1.3-4.3-4.3-5.2c-2.6-.7-5.5.3-6.2 2.3zm44.2-1.7c-2.9.7-4.9 2.6-4.6 4.9.3 2 2.9 3.3 5.9 2.6 2.9-.7 4.9-2.6 4.6-4.6-.3-1.9-3-3.2-5.9-2.9zM244.8 8C106.1 8 0 113.3 0 252c0 110.9 69.8 205.8 169.5 239.2 12.8 2.3 17.3-5.6 17.3-12.1 0-6.2-.3-40.4-.3-61.4 0 0-70 15-84.7-29.8 0 0-11.4-29.1-27.8-36.6 0 0-22.9-15.7 1.6-15.4 0 0 24.9 2 38.6 25.8 21.9 38.6 58.6 27.5 72.9 20.9 2.3-16 8.8-27.1 16-33.7-55.9-6.2-112.3-14.3-112.3-110.5 0-27.5 7.6-41.3 23.6-58.9-2.6-6.5-11.1-33.3 2.6-67.9 20.9-6.5 69 27 69 27 20-5.6 41.5-8.5 62.8-8.5s42.8 2.9 62.8 8.5c0 0 48.1-33.6 69-27 13.7 34.7 5.2 61.4 2.6 67.9 16 17.7 25.8 31.5 25.8 58.9 0 96.5-58.9 104.2-114.8 110.5 9.2 7.9 17 22.9 17 46.4 0 33.7-.3 75.4-.3 83.6 0 6.5 4.6 14.4 17.3 12.1C428.2 457.8 496 362.9 496 252 496 113.3 383.5 8 244.8 8zM97.2 352.9c-1.3 1-1 3.3.7 5.2 1.6 1.6 3.9 2.3 5.2 1 1.3-1 1-3.3-.7-5.2-1.6-1.6-3.9-2.3-5.2-1zm-10.8-8.1c-.7 1.3.3 2.9 2.3 3.9 1.6 1 3.6.7 4.3-.7.7-1.3-.3-2.9-2.3-3.9-2-.6-3.6-.3-4.3.7zm32.4 35.6c-1.6 1.3-1 4.3 1.3 6.2 2.3 2.3 5.2 2.6 6.5 1 1.3-1.3.7-4.3-1.3-6.2-2.2-2.3-5.2-2.6-6.5-1zm-11.4-14.7c-1.6 1-1.6 3.6 0 5.9 1.6 2.3 4.3 3.3 5.6 2.3 1.6-1.3 1.6-3.9 0-6.2-1.4-2.3-4-3.3-5.6-2z">
                </path>
            </svg>
        </symbol>


        <symbol id="hamburger" viewBox="0 0 24 24">

            <svg 
                width="800px" 
                height="800px" 
                fill="none">
                <path id="Vector" d="M5 17H19M5 12H19M5 7H19" stroke="#000000" stroke-width="2" stroke-linecap="round" stroke-linejoin="round"/>
            </svg>
        </symbol>


        <symbol id="linkedin" viewBox="0 0 448 512">

            <svg 
                stroke="currentColor" 
                fill="red" 
                stroke-width="0" 
                height="1em" 
                width="1em">
                <path d="M416 32H31.9C14.3 32 0 46.5 0 64.3v383.4C0 465.5 14.3 480 31.9 480H416c17.6 0 32-14.5 32-32.3V64.3c0-17.8-14.4-32.3-32-32.3zM135.4 416H69V202.2h66.5V416zm-33.2-243c-21.3 0-38.5-17.3-38.5-38.5S80.9 96 102.2 96c21.2 0 38.5 17.3 38.5 38.5 0 21.3-17.2 38.5-38.5 38.5zm282.1 243h-66.4V312c0-24.8-.5-56.7-34.5-56.7-34.6 0-39.9 27-39.9 54.9V416h-66.4V202.2h63.7v29.2h.9c8.9-16.8 30.6-34.5 62.9-34.5 67.2 0 79.7 44.3 79.7 101.9V416z">
                </path>
            </svg>
        </symbol>


        <symbol id="startrek" viewBox="0 0 1024 1024">

            <svg 
                stroke="currentColor" 
                fill="red" 
                stroke-width="2px" 
                height="2em" 
                width="2em" 
                viewBox="0 0 1207 1464" 
                xmlns="http://www.w3.org/2000/svg">
                <path d="m283 717.7c-.9-1.5 6.6-27.7 16.6-58.3 52.5-159.8 100-273.3 184.2-439.7 49.4-97.7 120.6-216.3 129.9-216.3 6.8 0 44.2 52.4 93.7 131.6 36.4 58.2 102.4 193.5 129 264.6 4 10.8 8.5 22.4 10 25.7 18.1 41.7 52.3 142 77.7 227.9 9 30.5 16.4 58.1 16.4 61.2 0 5.3-2.6 5.8-34.8 5.8-19.1 0-34.8-.6-34.8-1.3s-8.1-28.3-18-61.2c-41-136.9-87.4-259.3-140.8-371.7-19.2-40.4-69.6-131.9-88.6-161l-10.5-16-6.7 10c-11.5 17.1-53.9 95.3-82.4 152.1-61.3 122.1-109.1 238-155.2 376.5l-23.7 71.1-30.2.9c-16.6.4-30.9-.4-31.8-1.9zm394.3 65.4c-5.2-7.2-18.4-27.7-29.4-45.6s-21.6-33.9-23.6-35.6c-2.7-2.2-9.1 5.7-24.3 30.3-24 38.7-35.5 52.3-42.9 50.9-4.8-.9-5.3-6.3-5.3-58.2v-57.2l-19.7-10.4c-48.5-25.6-63.5-35.1-63.5-40.3 0-5.3 7.4-8.8 54.4-25.5 10.8-3.8 26-9.7 33.7-13l14-6 3.5-29.8c1.9-16.4 4.8-41.3 6.4-55.5 3.5-30.1 10-81.7 16.3-128.5 3.1-23.4 6.2-46.8 9.2-70.2 6.4-49.7 10.3-59.3 21-51.4 3.2 2.3 6.2 11.1 8 23.3 4.6 31 11.8 85.9 16.4 125.5 17 145.3 22.5 184 26.6 187.9 2 1.9 19.3 9.2 38.4 16.3 43.4 16.1 57.5 23.1 57.5 28.5 0 4.1-21.4 18.2-65 42.9-24.4 13.8-22.7 6.2-16.7 73.7 5.6 63 2.6 72.3-15 47.9zm373.8 353.7c-2.3-8.3-7.8-41.1-9.7-57.2l-2-17.2 15.7-23.7c20.9-31.6 49.3-89.7 60.6-124.3 5.1-15.4 12.7-45.3 17-66.5 7-34.2 7.8-45.7 7.9-102.1 0-56.8-.8-67.6-7.9-101.9-4.3-21.1-10.6-47.2-14-58-35.9-116.1-117-223.6-221-292.6-20-13.3-80.8-44.2-102.8-52.4-9.9-3.6-15.3-7.9-18.8-14.7-2.7-5.3-11.1-21.1-18.6-35.1s-12.7-26.5-11.4-27.7c5.7-5.4 94.8 26.6 136.7 49.1 154.6 82.9 261.1 220.1 305.5 393.7 19.2 75.1 20.5 193.6 2.8 265.3-4.7 19.1-23.6 82-26.8 89.2-1.5 3.3-8.4 19-15.3 34.8-16.7 38.1-40.4 77.9-68.3 114.9-22.1 29.4-27.4 34.2-29.6 26.4zm-905.6-4c-23.1-25.2-55.5-73.4-75.3-112-43.2-84.2-62.3-155.9-66.1-247.1-4.5-109 13.4-196.9 59.2-290.9 31.8-65.4 67.2-113.6 123-168 57.9-56.3 114.7-94.3 182.6-122.1 10.8-4.4 22.4-9.3 25.7-10.8 21.4-9.7 97.5-29 100.9-25.6 1 1-5.7 16.3-14.8 34.1l-16.6 32.3-31.8 10.8c-157.3 53.7-289.5 186.5-341.2 343-16.5 50.1-27.7 118.2-27.7 169.3 0 53.8 14.2 134.6 31.9 181.7 12.3 32.8 42.5 90.2 63.8 121.5 21.5 31.6 23 37.5 16.4 64.4-1.4 5.8-3.5 17-4.6 25-1.1 7.9-3.1 14.4-4.5 14.4-1.5-.1-10.9-9.1-20.9-20zm370 207.4c-41.2-6.4-66.5-12.5-101.9-24.4-33.1-11.2-72-28.8-72-32.6 0-2.2 16.9-22.5 36.3-43.9 1.3-1.4 14.4 2.2 29.1 8.1 31.2 12.4 70 23.5 108.4 31 38.7 7.5 137.4 7.6 175.4 0 85.5-16.9 143.2-40.3 211.7-85.8 20-13.3 37.4-23.5 38.6-22.8 2.8 1.7 26.4 48 26.4 52 0 5.1-58.4 41.7-98.3 61.6-40 20-95 40.2-133.1 48.9-63.3 14.6-156.3 17.9-220.6 7.9zm-350.5 116.2c-5.5-14.2 1.4-171 10.1-231.1 1.6-10.8 3.6-27.1 4.6-36.3 1.9-17.5 8.9-65.7 13.8-93.8 10.6-61.5 21.6-119.6 27.3-143.7 1.6-6.7 5.6-24.3 9.1-39.3 14.3-62.6 42.8-170.5 46.7-176.7 2-3.3 59.6-4.7 62.8-1.6.9.9-.8 9.5-3.8 19.1-9 29-33.4 123.4-42.6 165.2-4.8 21.6-10.8 48.8-13.4 60.5-12.5 55.9-28.8 155.5-36.2 220.8-2.4 21.6-5.2 42.7-6 46.9-1.9 9.1-.2 7.3 63.6-65.1 118.1-134.1 219.5-229.5 302.7-285.1 33.7-22.5 62-36.8 95-47.9 22.4-7.6 30.1-8.7 60.5-8.7 32.7 0 36 .6 54.9 9.5 29.2 13.8 71.1 57.5 113.6 118.7 3 4.3 4-4 1.5-12.4-1.7-5.5-5.1-19.6-7.7-31.2-10-44.7-17.8-77.5-30.8-129.4-7.4-29.6-13.5-55.8-13.5-58.3 0-3.8 5.6-4.4 35.3-3.7l35.3.9 9.6 37.8c15.2 60.1 30.6 125.5 39.1 166.3 4.3 20.8 9.9 47.3 12.4 59 17.8 83.1 27.7 141.1 42.1 248 10.7 79.4 13.7 135.3 7.5 139.2-7.8 4.8-9 2.4-49.9-102.9-50.2-129.4-127-264.3-184.9-325.2-30.4-32-42.7-38.1-70.1-35-45.5 5.1-111.7 42.3-185 104-29.1 24.5-155.2 150-184.9 184.1-61.9 71.1-101.8 118.9-149.4 179.3-59.6 75.4-64.6 80.3-69.3 68.1z" stroke="#000" stroke-width="6"/>
            </svg>
        </symbol>
    </defs>
</svg>